#!OML:ASF E:\Style4\Style4.ASF
:FULLY-SPECIFIED
:DEGREES
2217
root -1.60065 17.0772 -1.19279 5.73158 23.5037 7.56825
lowerback 15.1501 5.49674 2.18474
upperback 8.88905 7.61574 -1.92099
thorax 1.56135 4.03383 -4.21715
lowerneck 6.14018 -8.65031 -6.51074
upperneck -1.67837 -11.7743 8.22034
head -0.661989 -6.00549 4.01989
rclavicle 1.74931e-013 -2.94201e-014
rhumerus 38.0671 -18.8979 -21.1041
rradius 68.542
rwrist -16.6223
rhand -0.712975 11.6195
rfingers 7.12502
rthumb 24.9073 -16.7776
lclavicle 1.74931e-013 -2.94201e-014
lhumerus 20.4822 17.781 3.29992
lradius 102.429
lwrist 27.3634
lhand 6.23862 24.6065
lfingers 7.12502
lthumb 31.5507 51.9016
rfemur -28.5486 -18.7537 18.2908
rtibia 53.197
rfoot -29.1242 -22.9801
rtoes -2.15595
lfemur -29.9389 -6.72414 -20.9021
ltibia 41.5294
lfoot -14.1897 -0.512411
ltoes -23.1446
2218
root -1.60424 17.0518 -1.20056 5.57574 23.5663 7.54081
lowerback 15.2823 5.49648 2.35659
upperback 8.9364 7.63879 -1.75566
thorax 1.54403 4.04808 -4.15313
lowerneck 6.26225 -8.7412 -6.54415
upperneck -1.81121 -11.9045 7.95469
head -0.731036 -6.06723 3.94783
rclavicle 1.09332e-013 -1.90833e-014
rhumerus 37.9463 -18.5427 -21.0582
rradius 68.6551
rwrist -16.4419
rhand -0.634216 11.6777
rfingers 7.12502
rthumb 24.9828 -16.709
lclavicle 1.09332e-013 -1.90833e-014
lhumerus 20.4817 18.1836 3.28328
lradius 102.492
lwrist 27.7527
lhand 6.43941 24.6096
lfingers 7.12502
lthumb 31.7419 51.8669
rfemur -28.6334 -18.8096 18.2921
rtibia 53.6117
rfoot -29.2892 -22.9912
rtoes -2.22271
lfemur -30.0983 -6.77353 -20.8756
ltibia 42.0027
lfoot -14.3421 -0.494685
ltoes -23.1644
2219
root -1.60748 17.0282 -1.20823 5.40879 23.5796 7.47788
lowerback 15.3877 5.52284 2.57197
upperback 9.01342 7.70322 -1.60633
thorax 1.58517 4.0875 -4.12897
lowerneck 6.23975 -8.85492 -6.48608
upperneck -1.85066 -12.0558 7.67878
head -0.749002 -6.13702 3.84322
rclavicle 1.07344e-014 -4.77083e-015
rhumerus 37.7418 -18.3094 -20.9027
rradius 68.7362
rwrist -16.2578
rhand -0.467164 11.6358
rfingers 7.12502
rthumb 25.1428 -16.7285
lclavicle 1.07344e-014 -4.77083e-015
lhumerus 20.5903 18.6176 3.27501
lradius 102.491
lwrist 27.7603
lhand 6.46395 24.6421
lfingers 7.12502
lthumb 31.7653 51.8949
rfemur -28.7193 -18.8102 18.3236
rtibia 53.983
rfoot -29.4089 -23.0143
rtoes -2.25369
lfemur -30.2511 -6.80245 -20.8162
ltibia 42.4752
lfoot -14.4793 -0.508425
ltoes -23.0504
2220
root -1.60828 17.0083 -1.21535 5.32879 23.5567 7.59037
lowerback 15.5014 5.58606 2.67942
upperback 9.07199 7.80264 -1.53442
thorax 1.60256 4.14201 -4.1329
lowerneck 6.27486 -8.97733 -6.32857
upperneck -1.96204 -12.2113 7.40067
head -0.806966 -6.21049 3.72803
rclavicle -1.74931e-014 1.27222e-014
rhumerus 37.5558 -18.1154 -20.9633
rradius 68.7097
rwrist -15.7921
rhand -0.304025 11.6986
rfingers 7.12502
rthumb 25.2991 -16.6437
lclavicle -1.74931e-014 1.27222e-014
lhumerus 20.8047 19.0408 3.23089
lradius 102.436
lwrist 27.4622
lhand 6.34248 24.5581
lfingers 7.12502
lthumb 31.6496 51.8337
rfemur -28.812 -18.8239 18.164
rtibia 54.3472
rfoot -29.4788 -22.991
rtoes -2.40773
lfemur -30.3743 -6.80444 -20.9584
ltibia 42.9077
lfoot -14.65 -0.468032
ltoes -23.3066
2221
root -1.6069 16.9895 -1.22203 5.25722 23.5145 7.65653
lowerback 15.5399 5.65199 2.78948
upperback 9.08382 7.90384 -1.44141
thorax 1.60618 4.19479 -4.11129
lowerneck 6.50707 -9.08085 -6.18721
upperneck -2.10596 -12.3501 7.13015
head -0.910561 -6.27787 3.63418
rclavicle -2.70347e-014 1.74931e-014
rhumerus 37.5719 -17.8109 -21.3104
rradius 68.5427
rwrist -15.1647
rhand -0.123041 11.6795
rfingers 7.12502
rthumb 25.4725 -16.6381
lclavicle -2.70347e-014 1.74931e-014
lhumerus 21.0392 19.3555 3.18446
lradius 102.491
lwrist 27.8292
lhand 6.42383 24.6007
lfingers 7.12502
lthumb 31.7271 51.861
rfemur -28.9045 -18.8462 18.0601
rtibia 54.6758
rfoot -29.4848 -22.9841
rtoes -2.83538
lfemur -30.4917 -6.80846 -21.0538
ltibia 43.2948
lfoot -14.8379 -0.408039
ltoes -23.125
2222
root -1.60362 16.9679 -1.22826 5.13882 23.4612 7.68381
lowerback 15.5603 5.68428 2.88626
upperback 9.09559 7.95875 -1.31336
thorax 1.60735 4.22227 -4.03867
lowerneck 6.81293 -9.16161 -6.15144
upperneck -2.21369 -12.4702 6.90617
head -1.00755 -6.33636 3.57882
rclavicle 7.71285e-014 -3.18055e-014
rhumerus 37.4882 -17.4206 -21.4589
rradius 68.5908
rwrist -14.9314
rhand -0.0431355 11.2931
rfingers 7.12502
rthumb 25.5491 -17.0135
lclavicle 7.71285e-014 -3.18055e-014
lhumerus 21.172 19.614 3.12097
lradius 102.694
lwrist 28.9705
lhand 6.69597 24.8418
lfingers 7.12502
lthumb 31.9862 52.0505
rfemur -28.9386 -18.8461 17.9735
rtibia 54.9694
rfoot -29.5843 -22.9256
rtoes -2.6995
lfemur -30.5371 -6.84923 -21.115
ltibia 43.6239
lfoot -15.0132 -0.349594
ltoes -22.4983
2223
root -1.60055 16.9522 -1.23458 4.99234 23.3862 7.68221
lowerback 15.5477 5.70607 2.93971
upperback 9.20228 7.99515 -1.12534
thorax 1.71028 4.24116 -3.86727
lowerneck 6.86482 -9.22074 -6.11196
upperneck -2.30298 -12.5551 6.5865
head -1.06306 -6.37162 3.47361
rclavicle 1.74931e-014 -5.24792e-014
rhumerus 37.3212 -17.1105 -21.2922
rradius 68.9871
rwrist -15.0165
rhand -0.101482 10.074
rfingers 7.12502
rthumb 25.4932 -18.2407
lclavicle 1.74931e-014 -5.24792e-014
lhumerus 21.2692 19.9968 3.13828
lradius 102.841
lwrist 29.729
lhand 6.80296 25.1433
lfingers 7.12502
lthumb 32.0881 52.3315
rfemur -28.9383 -18.8306 17.912
rtibia 55.214
rfoot -29.6323 -22.9014
rtoes -2.69659
lfemur -30.5682 -6.94583 -21.1052
ltibia 43.9151
lfoot -15.146 -0.34881
ltoes -20.9966
2224
root -1.5965 16.9411 -1.2406 4.84158 23.2619 7.64926
lowerback 15.4967 5.73256 3.00033
upperback 9.34798 8.0379 -0.932584
thorax 1.87617 4.26554 -3.68808
lowerneck 6.86885 -9.28779 -6.05769
upperneck -2.39822 -12.6482 6.26111
head -1.11302 -6.41013 3.36173
rclavicle -1.38354e-013 5.88403e-014
rhumerus 37.2754 -16.913 -21.2777
rradius 68.8328
rwrist -15.0657
rhand -0.236765 11.269
rfingers 7.12502
rthumb 25.3636 -17.0641
lclavicle -1.38354e-013 5.88403e-014
lhumerus 21.4153 20.4458 3.12762
lradius 102.756
lwrist 29.6156
lhand 6.78486 25.1504
lfingers 7.12502
lthumb 32.0709 52.3421
rfemur -28.9466 -18.7584 17.8837
rtibia 55.4199
rfoot -29.5297 -23.0387
rtoes -3.12306
lfemur -30.6114 -7.07838 -21.0195
ltibia 44.1789
lfoot -15.2592 -0.591598
ltoes -18.0275
2225
root -1.58995 16.9252 -1.24815 4.80525 23.1324 7.7499
lowerback 15.451 5.75263 3.02434
upperback 9.43907 8.06692 -0.84678
thorax 1.99078 4.28274 -3.60307
lowerneck 6.82952 -9.38142 -5.94194
upperneck -2.37097 -12.7716 5.94588
head -1.11698 -6.46417 3.23508
rclavicle -8.74653e-014 2.8625e-014
rhumerus 37.1762 -16.6327 -21.365
rradius 68.8347
rwrist -15.1848
rhand -0.448517 11.4776
rfingers 7.12502
rthumb 25.1607 -16.8842
lclavicle -8.74653e-014 2.8625e-014
lhumerus 21.6608 20.8854 3.0332
lradius 102.562
lwrist 29.1577
lhand 6.61332 24.9564
lfingers 7.12502
lthumb 31.9075 52.1808
rfemur -29.044 -18.7122 17.7145
rtibia 55.6373
rfoot -29.5018 -23.0237
rtoes -3.18132
lfemur -30.6842 -7.16194 -21.1282
ltibia 44.4408
lfoot -15.4035 -0.552455
ltoes -17.033
2226
root -1.58261 16.9099 -1.25593 4.72676 22.9793 7.85492
lowerback 15.5147 5.76755 3.0438
upperback 9.48534 8.08996 -0.78832
thorax 2.00315 4.2946 -3.55963
lowerneck 6.58391 -9.42865 -5.64035
upperneck -2.15745 -12.8175 5.45115
head -1.05366 -6.47527 2.99747
rclavicle 8.34896e-014 -2.22639e-014
rhumerus 37.0273 -16.305 -21.4721
rradius 68.9154
rwrist -15.3498
rhand -0.509747 11.3665
rfingers 7.12502
rthumb 25.102 -17.0035
lclavicle 8.34896e-014 -2.22639e-014
lhumerus 21.9378 21.2326 2.93586
lradius 102.425
lwrist 28.9728
lhand 6.55816 24.8944
lfingers 7.12502
lthumb 31.855 52.1293
rfemur -29.0839 -18.7009 17.5304
rtibia 55.8583
rfoot -29.5174 -22.9475
rtoes -3.29831
lfemur -30.6725 -7.17841 -21.2965
ltibia 44.6961
lfoot -15.5506 -0.303729
ltoes -17.4639
2227
root -1.57402 16.8973 -1.26343 4.56794 22.7814 7.80551
lowerback 15.5593 5.77647 3.16457
upperback 9.54273 8.11698 -0.68051
thorax 2.04507 4.31187 -3.51702
lowerneck 6.46214 -9.44251 -5.32321
upperneck -2.14924 -12.8201 4.97438
head -1.08121 -6.46642 2.78307
rclavicle -7.95139e-015 6.36111e-015
rhumerus 36.9573 -16.0471 -21.6122
rradius 68.851
rwrist -15.2335
rhand -0.0614711 11.7271
rfingers 7.12502
rthumb 25.5315 -16.5821
lclavicle -7.95139e-015 6.36111e-015
lhumerus 22.1932 21.5566 2.84319
lradius 102.314
lwrist 29.1703
lhand 6.51863 24.7593
lfingers 7.12502
lthumb 31.8174 52.0017
rfemur -29.0798 -18.6522 17.4996
rtibia 56.0517
rfoot -29.5849 -22.8245
rtoes -3.46418
lfemur -30.6335 -7.17491 -21.3017
ltibia 44.9432
lfoot -15.6729 -0.108144
ltoes -17.2306
2228
root -1.56532 16.8895 -1.26896 4.43106 22.506 7.75754
lowerback 15.5439 5.80541 3.22851
upperback 9.61019 8.16114 -0.538814
thorax 2.11668 4.33439 -3.40278
lowerneck 6.59328 -9.47782 -5.2382
upperneck -2.32772 -12.8745 4.63278
head -1.18661 -6.48587 2.67729
rclavicle 1.66979e-014 3.81667e-014
rhumerus 36.8814 -15.6658 -21.6375
rradius 68.9389
rwrist -15.5059
rhand -0.0143147 11.9357
rfingers 7.12502
rthumb 25.5767 -16.367
lclavicle 1.66979e-014 3.81667e-014
lhumerus 22.5103 21.9169 2.8154
lradius 102.153
lwrist 29.5039
lhand 6.52769 24.9256
lfingers 7.12502
lthumb 31.826 52.1663
rfemur -29.0938 -18.4989 17.4748
rtibia 56.1849
rfoot -29.5691 -22.7695
rtoes -3.55689
lfemur -30.5898 -7.15474 -21.2863
ltibia 45.1508
lfoot -15.9155 0.113907
ltoes -17.1746
2229
root -1.55444 16.8858 -1.27439 4.30994 22.2072 7.71188
lowerback 15.5313 5.78144 3.25591
upperback 9.64825 8.1307 -0.420322
thorax 2.14687 4.31676 -3.28731
lowerneck 6.62974 -9.44372 -5.21531
upperneck -2.30775 -12.8398 4.29388
head -1.21212 -6.46008 2.56717
rclavicle -3.89618e-014 1.11319e-014
rhumerus 36.938 -15.2179 -21.8103
rradius 69.1773
rwrist -15.7487
rhand -0.0132006 11.5219
rfingers 7.12502
rthumb 25.5777 -16.7806
lclavicle -3.89618e-014 1.11319e-014
lhumerus 22.6889 22.2115 2.6573
lradius 102.085
lwrist 29.8395
lhand 6.65704 25.3755
lfingers 7.12502
lthumb 31.9492 52.5916
rfemur -29.0611 -18.3549 17.4517
rtibia 56.263
rfoot -29.5694 -22.6329
rtoes -3.39561
lfemur -30.5291 -7.06452 -21.296
ltibia 45.3266
lfoot -16.1496 0.382639
ltoes -17.6191
